Cover:  
http://www.shotpix.com/images/96049785416579349493.jpg


Release Title: Chris Brown - Don't Judge Me (2012)

Music video by Chris Brown performing Don't Judge Me. (C) 2012 RCA Records, a division of Sony Music Entertainment


                             1080p Full HD MP4 Video
                                     +
                             96 kbps/VBR M4A Audio



Sing Along!
English subtitles included.



General

Format                         : MPEG-4
File size                      : 53.6 MiB
Duration                       : 4mn 51s
Overall bit rate mode          : Variable
Overall bit rate               : 1 542 Kbps
Recorded date                  : 2012
Cover                          : Yes

Video
ID                             : 1
Format                         : AVC
Format/Info                    : Advanced Video Codec
Bit rate mode                  : Variable
Bit rate                       : 1 400 Kbps
Width                          : 1 920 pixels
Height                         : 1 080 pixels
Display aspect ratio           : 16:9
Frame rate mode                : Variable
Frame rate                     : 23.976 fps
Stream size                    : 49.0 MiB (91%)
Writing library                : x264 core 125


Audio
ID                             : 2
Format                         : AAC
Format/Info                    : Advanced Audio Codec
Format profile                 : LC
Codec ID                       : 40
Bit rate mode                  : Variable
Bit rate                       : 128 Kbps
Channel(s)                     : 2 channels
Channel positions              : Front: L R
Sampling rate                  : 48.0 KHz
Stream size                    : 4.44 MiB (8%)




Screens:

 
http://www.shotpix.com/images/31347394502701030275.jpg 
http://www.shotpix.com/images/13905985321561026208.jpg




Thumbs:
 
http://www.shotpix.com/images/28043322127322745435.jpg


------------------------------------------------------------------------


Notes:

* Best played on VLC Media Player.
* Install shark007 codecs in case of any kind of problem in playback (For non-VLC Media Player users).
* Alternatively, install Core AVC codecs, the fastest decoder that there is coupled with Community Center Codec Pack and play on Windows Media Player Classic.
* Read NFO
* Help in seeding this torrent as much as you can. 



Greets to: srkfan, VYTO, MgB, staff members at ExtraTorrent, TPB,KAT, 1337x, PublicHD, Ahashare,
SilverTorrent, TorrentMafia, P2PDL, and all others


Encoder Notes: Looking For Early Access To Anything You Can Provide DVDScr, R5, DVDRips, BluRay, Direct Audio, Early Music
Releases, Seedboxes, Links, Dedicated Servers anything u can provide, Advance / Promo CDs/DVDs. If You Got anything to
offer contact me at "contact@tinym.eu"


Facebook Fan Page: http:// www . facebook . com / p2pdl

                                   Enjoy!